<?xml version="1.0" encoding="UTF-8" standalone="no"?>
<svg
   width="126"
   height="26"
   viewBox="0 0 126 26"
   fill="none"
   version="1.1"
   id="svg16"
   sodipodi:docname="Group 33899.svg"
   inkscape:version="1.4.3 (0d15f75, 2025-12-25)"
   xmlns:inkscape="http://www.inkscape.org/namespaces/inkscape"
   xmlns:sodipodi="http://sodipodi.sourceforge.net/DTD/sodipodi-0.dtd"
   xmlns="http://www.w3.org/2000/svg"
   xmlns:svg="http://www.w3.org/2000/svg">
  <defs
     id="defs16" />
  <sodipodi:namedview
     id="namedview16"
     pagecolor="#ffffff"
     bordercolor="#000000"
     borderopacity="0.25"
     inkscape:showpageshadow="2"
     inkscape:pageopacity="0.0"
     inkscape:pagecheckerboard="0"
     inkscape:deskcolor="#d1d1d1"
     inkscape:zoom="8.930233"
     inkscape:cx="17.076822"
     inkscape:cy="32.585936"
     inkscape:window-width="1470"
     inkscape:window-height="919"
     inkscape:window-x="0"
     inkscape:window-y="37"
     inkscape:window-maximized="0"
     inkscape:current-layer="svg16" />
  <path
     d="M12.9356 16.908V24.8711H7.56201V17.4752V16.908C7.56201 15.7299 7.64146 14.7627 7.80036 14.0064C7.95925 13.2719 8.24815 12.5519 8.66706 11.8538C9.33154 10.7993 10.1982 9.98483 11.2527 9.42487C12.3217 8.85036 13.4917 8.56674 14.7557 8.56674C16.2218 8.56674 17.5508 8.93763 18.7281 9.66485C19.9053 10.4066 20.7721 11.4102 21.3354 12.6756C21.6026 13.2282 21.7832 13.7955 21.8843 14.3918C21.9782 14.9736 22.0288 15.8099 22.0288 16.9007V17.468V24.8638H16.6624V16.908V16.3553C16.6408 14.7118 16.0196 13.8973 14.799 13.8973C13.5567 13.8973 12.9356 14.7191 12.9356 16.3553V16.908Z"
     fill="#FF6F00"
     id="path1" />
  <path
     d="M55.7002 24.8782H50.3267V17.3951V16.617C50.3267 15.6861 50.4133 14.8425 50.5867 14.0717C50.7672 13.2499 51.0345 12.5518 51.3884 11.9845C51.7712 11.3591 52.2406 10.8064 52.7896 10.3192C54.1185 9.1411 55.7219 8.55205 57.5998 8.55205C57.7731 8.55205 58.0187 8.56659 58.3365 8.60295V14.0935C58.0187 13.9844 57.737 13.9335 57.4986 13.9335C56.7186 13.9335 56.1769 14.3189 55.888 15.0825C55.758 15.4098 55.693 16.0352 55.693 16.9587V17.3442V24.8782H55.7002Z"
     fill="#F5F5F5"
     id="path2"
     style="fill:#43499e;fill-opacity:1" />
  <path
     d="M59.3047 16.1519V3.60735H64.6783V15.4538V16.181C64.6783 17.1628 64.8083 17.9046 65.0611 18.4136C65.3066 18.8645 65.6461 19.2136 66.0722 19.4463C66.5128 19.6935 66.9895 19.8172 67.5023 19.8172C68.0512 19.8172 68.5423 19.679 68.9829 19.4099C69.4307 19.1408 69.7846 18.7772 70.0302 18.3263C70.2902 17.8755 70.413 17.3737 70.413 16.8355C70.413 16.3047 70.283 15.8174 70.0302 15.3593C69.7485 14.9084 69.3946 14.5521 68.954 14.3048C68.4845 14.0575 67.9717 13.9339 67.4228 13.9339C66.9173 13.9339 66.3322 14.0575 65.6533 14.3048V8.74881C66.2744 8.61064 66.8523 8.53792 67.3723 8.53792C68.8962 8.53792 70.3046 8.90153 71.6047 9.62148C72.8903 10.3414 73.9015 11.345 74.6454 12.6176C75.3821 13.8903 75.7577 15.2866 75.7577 16.8137C75.7577 18.3263 75.3965 19.7226 74.6671 21.0098C73.9304 22.3043 72.9336 23.3224 71.6914 24.0714C70.4346 24.8132 69.0624 25.1913 67.5601 25.1913C66.0578 25.1913 64.6783 24.8277 63.4143 24.1078C62.1359 23.3733 61.1392 22.377 60.4242 21.1116C59.6875 19.8462 59.3119 18.4718 59.3119 16.981V16.1519H59.3047Z"
     fill="#F5F5F5"
     id="path3"
     style="fill:#43499e;fill-opacity:1" />
  <path
     d="M79.7444 9.97027C78.6971 9.97027 77.751 9.54121 77.0576 8.85034V24.8783H82.4456V8.8358C81.7595 9.53393 80.7989 9.97027 79.7444 9.97027Z"
     fill="#F5F5F5"
     id="path4"
     style="fill:#43499e;fill-opacity:1" />
  <path
     d="M76.812 6.13797C76.812 4.50899 78.1265 3.19272 79.7444 3.19272C81.3622 3.19272 82.6767 4.51626 82.6767 6.13797C82.6767 7.76695 81.3622 9.08323 79.7444 9.08323C78.1265 9.08323 76.812 7.76695 76.812 6.13797Z"
     fill="#F5F5F5"
     id="path5"
     style="fill:#43499e;fill-opacity:1" />
  <path
     d="M2.93239 9.963C1.88512 9.963 0.93897 9.53393 0.245605 8.85034V24.8783H5.63363V8.8358C4.94026 9.52666 3.98689 9.963 2.93239 9.963Z"
     fill="#FF6F00"
     id="path6" />
  <path
     d="M0 6.13036C0 4.50138 1.3145 3.1851 2.93235 3.1851C4.55021 3.1851 5.86471 4.50865 5.86471 6.13036C5.86471 7.75934 4.55021 9.07561 2.93235 9.07561C1.3145 9.07561 0 7.75934 0 6.13036Z"
     fill="#FF6F00"
     id="path7" />
  <path
     d="M37.3628 15.5553C37.3628 13.5191 39.0023 11.8683 41.0246 11.8683C43.0469 11.8683 44.6865 13.5191 44.6865 15.5553C44.6865 17.5915 43.0469 19.2423 41.0246 19.2423C39.0023 19.2423 37.3628 17.5915 37.3628 15.5553Z"
     fill="#FF6F00"
     id="path8" />
  <path
     d="M47.019 6.1161C47.019 4.71256 48.153 3.57082 49.5469 3.57082C50.9409 3.57082 52.0748 4.71256 52.0748 6.1161C52.0748 7.51964 50.9409 8.66138 49.5469 8.66138C48.1458 8.66138 47.019 7.51964 47.019 6.1161Z"
     fill="#FF6F00"
     id="path9" />
  <path
     d="M41.7759 1.47626C41.7759 0.661773 42.4331 0 43.2421 0C44.051 0 44.7082 0.661773 44.7082 1.47626C44.7082 2.29075 44.051 2.95253 43.2421 2.95253C42.4259 2.94525 41.7759 2.29075 41.7759 1.47626Z"
     fill="#FF6F00"
     id="path10" />
  <path
     d="M49.5543 9.41742C49.5471 9.41742 49.5471 9.41742 49.5471 9.41742C47.7342 9.41742 46.268 7.93388 46.268 6.11583C46.268 5.4686 46.4558 4.865 46.7808 4.35595C46.138 3.82507 45.4085 3.38874 44.6141 3.06149C44.2457 3.38147 43.769 3.58509 43.2418 3.58509C42.3823 3.58509 41.6456 3.06149 41.3206 2.31972C38.0704 2.10155 34.2786 3.19239 30.689 5.75221C23.8998 10.5882 21.7764 17.8387 24.9832 22.4056C28.19 26.9726 35.687 27.3726 42.4762 22.5365C47.6909 18.8131 50.1537 13.6717 49.5543 9.41742ZM45.6324 15.5552C45.6324 18.1077 43.5668 20.1876 41.0244 20.1876C39.9627 20.1876 38.9805 19.8167 38.2004 19.2058C34.0836 21.1257 30.4362 20.4276 28.6956 17.955C26.601 14.9734 27.8433 10.2174 32.9713 6.5667C38.0993 2.91604 42.9601 3.31602 45.0619 6.3049C46.3619 8.15205 46.3764 10.6755 44.9824 13.199C45.3941 13.8898 45.6324 14.6898 45.6324 15.5552Z"
     fill="#F5F5F5"
     id="path11"
     style="fill:#43499e;fill-opacity:1" />
  <path
     d="M122.956 9.97027C121.909 9.97027 120.962 9.54121 120.269 8.85034V24.8783H125.657V8.8358C124.971 9.53393 124.01 9.97027 122.956 9.97027Z"
     fill="#F5F5F5"
     id="path12"
     style="fill:#43499e;fill-opacity:1" />
  <path
     d="M120.023 6.13799C120.023 4.50901 121.338 3.19273 122.956 3.19273C124.574 3.19273 125.888 4.51628 125.888 6.13799C125.888 7.76697 124.574 9.08324 122.956 9.08324C121.338 9.08324 120.023 7.76697 120.023 6.13799Z"
     fill="#F5F5F5"
     id="path13"
     style="fill:#43499e;fill-opacity:1" />
  <path
     d="M119.343 24.8833H113.099L112.017 21.3846H103.972L102.903 24.8833H99.6515C100.187 24.2154 100.507 23.3675 100.507 22.4437C100.507 21.0919 99.8151 19.8966 98.7656 19.1956L104.428 3.65958H111.551L119.343 24.8833ZM105.378 16.8273H110.611L107.982 8.32486L105.378 16.8273Z"
     fill="#F5F5F5"
     id="path14"
     style="fill:#43499e;fill-opacity:1" />
  <path
     d="M93.6445 22.4613C93.6445 20.8323 94.959 19.5161 96.5769 19.5161C98.1947 19.5161 99.5092 20.8396 99.5092 22.4613C99.5092 24.0903 98.1947 25.4066 96.5769 25.4066C94.959 25.4066 93.6445 24.0903 93.6445 22.4613Z"
     fill="#FF6F00"
     id="path15" />
  <path
     d="M89.5295 8.78252H92.4569V13.9055H89.5295V18.0526C89.5295 18.9957 90.294 19.7602 91.2371 19.7602H93.7693C93.1072 20.4593 92.7008 21.4033 92.7008 22.4437C92.7008 23.4722 93.0981 24.4065 93.7469 25.1031L91.2371 25.1271C87.33 25.1271 84.1626 21.9598 84.1626 18.0526V3.65958H89.5295V8.78252Z"
     fill="#F5F5F5"
     id="path16"
     style="fill:#43499e;fill-opacity:1" />
</svg>
